<?xml version="1.0" encoding="UTF-8" standalone="no"?>
<!-- Created with Inkscape (http://www.inkscape.org/) -->

<svg
   width="264.58334mm"
   height="126.54459mm"
   viewBox="0 0 264.58334 126.54459"
   version="1.1"
   id="svg5"
   inkscape:version="1.1.2 (0a00cf5339, 2022-02-04)"
   sodipodi:docname="ingame.svg"
   xmlns:inkscape="http://www.inkscape.org/namespaces/inkscape"
   xmlns:sodipodi="http://sodipodi.sourceforge.net/DTD/sodipodi-0.dtd"
   xmlns="http://www.w3.org/2000/svg"
   xmlns:svg="http://www.w3.org/2000/svg">
  <sodipodi:namedview
     id="namedview7"
     pagecolor="#505050"
     bordercolor="#eeeeee"
     borderopacity="1"
     inkscape:pageshadow="0"
     inkscape:pageopacity="0"
     inkscape:pagecheckerboard="0"
     inkscape:document-units="px"
     showgrid="false"
     inkscape:zoom="1.0998546"
     inkscape:cx="360.04759"
     inkscape:cy="177.75077"
     inkscape:window-width="2522"
     inkscape:window-height="1376"
     inkscape:window-x="38"
     inkscape:window-y="27"
     inkscape:window-maximized="1"
     inkscape:current-layer="layer1"
     fit-margin-top="0"
     fit-margin-left="0"
     fit-margin-right="0"
     fit-margin-bottom="0" />
  <defs
     id="defs2" />
  <g
     inkscape:label="Layer 1"
     inkscape:groupmode="layer"
     id="layer1"
     transform="translate(29.033218,-82.363876)">
    <g
       id="g922">
      <path
         style="fill:#e1de48;stroke-width:0.108436"
         d="M 103.25845,208.90847 H -29.033218 V 145.63617 82.363876 H 103.25845 235.55012 v 63.272294 63.2723 z"
         id="path930" />
      <path
         style="fill:#49b0dd;stroke-width:0.108436"
         d="M 103.25845,208.90847 H -29.033218 V 145.63617 82.363876 H 103.25845 235.55012 v 63.272294 63.2723 z M 37.329489,129.75032 h 1.192793 v -0.54217 -0.54218 h 0.433744 0.433743 v -1.13858 -1.13858 H 38.5765 37.763232 v 0.54218 0.54218 h -0.813269 -0.813268 v -0.54218 -0.54218 h -0.433743 -0.433744 v 1.13858 1.13858 h 0.433744 0.433743 v 0.54218 0.54217 z"
         id="path928" />
      <path
         style="fill:#6bcb42;stroke-width:0.108436"
         d="M 103.25845,208.90847 H -29.033218 v -7.10255 -7.10255 h 5.313354 5.313354 v 0.5964 0.5964 h 2.873548 2.873549 v 0.54218 0.54218 h 1.192794 1.192794 v 0.54218 0.54218 h 0.4337427 0.4337432 v 0.59639 0.5964 h 0.3795253 0.3795253 v 0.54218 0.54218 h 0.4337432 0.4337431 v 0.54218 0.54218 h 0.3795253 0.3795253 v 0.59639 0.5964 h 0.4337432 0.4337432 v 0.54218 0.54218 h 0.3795252 0.3795253 v 0.54218 0.54218 h 0.4337432 0.4337432 v 0.59639 0.5964 h 0.3795253 0.3795253 v 0.54218 0.54218 h 1.2470116 1.2470116 v 0.54218 0.54218 h 8.51221 8.5122095 v -0.54218 -0.54218 h 1.247012 1.247012 v -0.54218 -0.54218 h 0.813268 0.813269 v -0.5964 -0.59639 h 0.813268 0.813269 v -0.54218 -0.54218 h 0.379525 0.379525 v -0.54218 -0.54218 h 0.433743 0.433743 v -0.5964 -0.59639 h 0.379526 0.379525 v -0.54218 -0.54218 h 0.813268 0.813269 v -0.54218 -0.54218 h 0.813268 0.813269 v -0.5964 -0.59639 h 1.247011 1.247012 v -0.54218 -0.54218 h 5.259136 5.259136 v 0.54218 0.54218 h 1.626537 1.626537 v 0.59639 0.5964 h 0.813269 0.813268 v 0.54218 0.54218 h 0.813269 0.813268 v 0.54218 0.54218 h 0.433743 0.433743 v 0.59639 0.5964 h 0.813269 0.813268 v 0.54218 0.54218 h 0.813269 0.813268 v 0.54218 0.54218 h 1.192794 1.192794 v 0.59639 0.5964 h 2.06028 2.06028 v 0.54218 0.54218 h 2.006062 2.006062 v -0.54218 -0.54218 h 2.439806 2.439805 v -0.5964 -0.59639 h 0.813269 0.813268 v -0.54218 -0.54218 h 0.813268 0.813269 v -0.54218 -0.54218 h 0.433743 0.433743 v -0.5964 -0.59639 h 0.813269 0.813268 v -0.54218 -0.54218 h 0.813269 0.813268 v -0.54218 -0.54218 h 0.813269 0.813268 v -0.5964 -0.59639 h 0.813269 0.813268 v -0.54218 -0.54218 h 2.439805 2.439806 v -0.54218 -0.54218 h 6.506147 6.506148 v 0.54218 0.54218 h 2.819331 2.819335 v 0.54218 0.54218 h 2.4398 2.43981 v 0.59639 0.5964 h 4.87961 4.87961 v -0.5964 -0.59639 h 2.06028 2.06028 v -0.54218 -0.54218 h 1.62654 1.62653 v -39.79595 -39.79594 h -0.43374 -0.43374 v -0.54218 -0.54218 h 3.25307 3.25307 v 0.54218 0.54218 h -0.37952 -0.37953 v 39.25377 39.25376 h 11.76529 11.76528 v 0.54218 0.54218 h 1.62654 1.62653 v 0.54218 0.54218 h 1.62654 1.62654 v 0.59639 0.5964 h 0.81327 0.81326 v 0.54218 0.54218 h 1.24702 1.24701 v 0.54218 0.54218 h 1.62654 1.62653 v -42.56106 -42.56106 h -0.43374 -0.43374 v -0.54217 -0.54218 h 3.25307 3.25307 v 0.54218 0.54217 h -0.37952 -0.37953 v 42.56106 42.56106 h 1.62654 1.62654 v -0.54218 -0.54218 h 1.62653 1.62654 v -0.54218 -0.54218 h 1.19279 1.1928 v -0.5964 -0.59639 h 2.4398 2.43981 v -0.54218 -0.54218 h 6.93989 6.93989 v 0.54218 0.54218 h 2.00606 2.00606 v 0.59639 0.5964 h 1.24702 1.24701 v 0.54218 0.54218 h 0.81327 0.81327 v -0.54218 -0.54218 h 3.63259 3.6326 v 0.54218 0.54218 h -0.37952 -0.37953 v 1.68075 1.68076 h 0.81327 0.81327 v 0.54218 0.54218 h 4.87961 4.87961 v -0.54218 -0.54218 h 2.00606 2.00607 v -0.54218 -0.54218 h 1.24701 1.24701 v -0.5964 -0.59639 h 1.19279 1.1928 v -0.54218 -0.54218 h 1.24701 1.24701 v -0.54218 -0.54218 h 0.48796 0.48796 v 4.82539 4.8254 z M 209.30866,172.3656 h -3.25307 v -0.5964 -0.5964 h 0.43374 0.43374 V 126.76834 82.363876 h 2.43981 2.4398 v 44.404464 44.40446 h 0.37953 0.37952 v 0.5964 0.5964 z M 124.72874,89.412204 h -3.25307 v -0.542179 -0.542179 h 0.43374 0.43374 v -2.981985 -2.981985 h 2.43981 2.4398 v 2.981985 2.981985 h 0.37953 0.37952 v 0.542179 0.542179 z m 42.28996,-1.084358 h -3.25307 v -0.596397 -0.596397 h 0.43374 0.43374 v -2.385588 -2.385588 h 2.43981 2.4398 v 2.385588 2.385588 h 0.37953 0.37952 v 0.596397 0.596397 z"
         id="path926" />
      <path
         style="fill:#20b038;stroke-width:0.108436"
         d="m 124.78296,208.90847 h -2.43981 v -45.75992 -45.75991 h -0.43374 -0.43374 v -0.54218 -0.54218 h 3.25307 3.25307 v 0.54218 0.54218 h -0.37952 -0.37953 v 45.75991 45.75992 z m 42.28996,0 h -2.43981 v -46.30209 -46.3021 h -0.43374 -0.43374 v -0.54217 -0.54218 h 3.25307 3.25307 v 0.54218 0.54217 h -0.37952 -0.37953 v 46.3021 46.30209 z m 42.28996,0 h -2.43981 v -4.28322 -4.28321 h -0.43374 -0.43374 v -0.54218 -0.54218 h 3.25307 3.25307 v 0.54218 0.54218 h -0.37952 -0.37953 v 4.28321 4.28322 z m -0.0542,-36.54287 h -3.25307 v -0.5964 -0.5964 h 0.43374 0.43374 V 126.76834 82.363876 h 2.43981 2.4398 v 44.404464 44.40446 h 0.37953 0.37952 v 0.5964 0.5964 z M 124.72874,89.412204 h -3.25307 v -0.542179 -0.542179 h 0.43374 0.43374 v -2.981985 -2.981985 h 2.43981 2.4398 v 2.981985 2.981985 h 0.37953 0.37952 v 0.542179 0.542179 z m 42.28996,-1.084358 h -3.25307 v -0.596397 -0.596397 h 0.43374 0.43374 v -2.385588 -2.385588 h 2.43981 2.4398 v 2.385588 2.385588 h 0.37953 0.37952 v 0.596397 0.596397 z"
         id="path924" />
    </g>
  </g>
</svg>
